# xmcd
#
# Track frame offsets:
#	150
#	12932
#	27858
#	40336
#	52239
#	66011
#	80696
#	94636
#	109521
#	120439
#	131417
#	143495
#	155147
#	167563
#
# Disc length: 2420 seconds
#
# Revision: 1
# Processed by: cddbd v1.5.1PL0 Copyright (c) Steve Scherf et al.
# Submitted via: audiograbber 1.83.01
#
DISCID=b109720e
DTITLE=De Chico's - Het Beste van de Chico's
DYEAR=1972
DGENRE=Country
TTITLE0=De Westeren Express
TTITLE1=Buffalo Bill
TTITLE2=Zwerverslied (Wandering Star)
TTITLE3=Jimmy Brown
TTITLE4=Goudkoorts
TTITLE5=Vier kale Muren (Four Walls)
TTITLE6=Koel Helder Water (Cool water)
TTITLE7=Met m'n Ouwe Leren Zadel
TTITLE8=Dakota Bell
TTITLE9=Olie in de Grond
TTITLE10=Smoky
TTITLE11='s Avonds als het Kampvuur Brandt
TTITLE12=De General Store
TTITLE13=De Oude Saloon
EXTD=
EXTT0=
EXTT1=
EXTT2=
EXTT3=
EXTT4=
EXTT5=
EXTT6=
EXTT7=
EXTT8=
EXTT9=
EXTT10=
EXTT11=
EXTT12=
EXTT13=
PLAYORDER=
